<svg width="29" height="29" viewBox="0 0 29 29" fill="none" xmlns="http://www.w3.org/2000/svg">
<path fill-rule="evenodd" clip-rule="evenodd" d="M26 13C26 20.1797 20.1797 26 13 26C5.8203 26 0 20.1797 0 13C0 5.8203 5.8203 0 13 0C20.1797 0 26 5.8203 26 13ZM6 10.1C6 9.49249 6.49249 9 7.1 9H15.9C16.5075 9 17 9.49249 17 10.1C17 10.7075 16.5075 11.2 15.9 11.2H7.1C6.49249 11.2 6 10.7075 6 10.1ZM7.1 13.4C6.49249 13.4 6 13.8925 6 14.5C6 15.1075 6.49249 15.6 7.1 15.6H12.6C13.2075 15.6 13.7 15.1075 13.7 14.5C13.7 13.8925 13.2075 13.4 12.6 13.4H7.1Z" fill="white"/>
<rect x="21.5398" y="20.0901" width="9.20546" height="2.44199" rx="1" transform="rotate(43.1452 21.5398 20.0901)" fill="white"/>
</svg>
